<svg width="100%" height="100%" id="svg" viewBox="0 0 1440 590" xmlns="http://www.w3.org/2000/svg" class="transition duration-300 ease-in-out delay-150"><defs><linearGradient id="gradient" x1="0%" y1="50%" x2="100%" y2="50%"><stop offset="5%" stop-color="#F78DA7"></stop><stop offset="95%" stop-color="#8ED1FC"></stop></linearGradient></defs><path d="M 0,600 L 0,0 C 107.31100478468898,43.85645933014354 214.62200956937795,87.71291866028707 311,97 C 407.37799043062205,106.28708133971293 492.82296650717706,81.00478468899523 587,94 C 681.1770334928229,106.99521531100477 784.0861244019138,158.26794258373204 879,190 C 973.9138755980862,221.73205741626796 1060.8325358851675,233.92344497607655 1153,199 C 1245.1674641148325,164.07655502392345 1342.5837320574162,82.03827751196172 1440,0 L 1440,600 L 0,600 Z" stroke="none" stroke-width="0" fill="url(#gradient)" fill-opacity="0.53" class="transition-all duration-300 ease-in-out delay-150 path-0"></path><defs><linearGradient id="gradient" x1="0%" y1="50%" x2="100%" y2="50%"><stop offset="5%" stop-color="#F78DA7"></stop><stop offset="95%" stop-color="#8ED1FC"></stop></linearGradient></defs><path d="M 0,600 L 0,0 C 97.39712918660285,133.35885167464116 194.7942583732057,266.7177033492823 281,316 C 367.2057416267943,365.2822966507177 442.22009569377985,330.4880382775119 532,311 C 621.7799043062201,291.5119617224881 726.3253588516745,287.3301435406699 838,301 C 949.6746411483255,314.6698564593301 1068.4784688995217,346.1913875598086 1170,299 C 1271.5215311004783,251.80861244019135 1355.7607655502393,125.90430622009568 1440,0 L 1440,600 L 0,600 Z" stroke="none" stroke-width="0" fill="url(#gradient)" fill-opacity="1" class="transition-all duration-300 ease-in-out delay-150 path-1"></path></svg>
